<svg xmlns="http://www.w3.org/2000/svg" viewBox="0 0 114.78 32.13"><defs><style>.cls-1{fill:#0065c1;}</style></defs><title>Mesa de trabajo 87</title><g id="Capa_1" data-name="Capa 1"><path class="cls-1" d="M62.08,7.45H58.35v7.6H62c2.69,0,4.87-1.15,4.87-3.84s-2.14-3.76-4.83-3.76M38,5.36,27.31,18.66v7.92a5,5,0,0,0,.79,3H14.88a4.86,4.86,0,0,0,.82-3V18.66L5.12,5.46A11.25,11.25,0,0,0,1.75,2.37H15.17A14.37,14.37,0,0,0,17,5.87l4.47,6.84s.14,0,.15,0L26.1,5.87a14.48,14.48,0,0,0,1.8-3.49H41.33a9.78,9.78,0,0,0-3.33,3M67.89,20H58.32v6.6a5,5,0,0,0,.8,3H45.88a4.64,4.64,0,0,0,.84-3V5.42a4.81,4.81,0,0,0-.83-3h22c6.24,0,10.65,3.15,10.65,8.83S74,20,67.89,20M112.72,8.77A6.55,6.55,0,0,0,109.44,8H96.29v6.55h10.57a12.87,12.87,0,0,0,3.53-.46v6.5a10.8,10.8,0,0,0-3.58-.59H96.29v6.6a5,5,0,0,0,.74,3H83.84a4.65,4.65,0,0,0,.82-3V5.4a4.7,4.7,0,0,0-.83-3h28.89Z"/></g></svg>